<svg xmlns="http://www.w3.org/2000/svg" viewBox="0 0 1024 1024" width="1024" height="1024">
<defs><linearGradient id="vg" x1="0" y1="1" x2="1" y2="0"><stop offset="0" stop-color="#0197B0"/><stop offset="1" stop-color="#7BD758"/></linearGradient></defs>
<circle cx="512" cy="512" r="430.1" fill="#F8F3F0"/>
<circle cx="512" cy="512" r="453.1" fill="none" stroke="url(#vg)" stroke-width="46.1"/>
<path fill="url(#vg)" fill-rule="evenodd" d="M 778.2 597.1 L 765.5 609.8 L 763.7 618.8 L 756.4 627.9 L 752.8 629.7 L 747.4 629.7 L 745.6 631.5 L 743.8 629.7 L 732.9 638.8 L 732.9 646.0 L 734.7 647.8 L 734.7 651.4 L 732.9 653.2 L 732.9 664.1 L 727.5 675.0 L 727.5 702.1 L 729.3 703.9 L 729.3 707.6 L 736.5 714.8 L 738.3 718.4 L 742.0 718.4 L 747.4 714.8 L 756.4 713.0 L 758.3 705.7 L 760.1 703.9 L 760.1 700.3 L 765.5 689.5 L 765.5 682.2 L 767.3 680.4 L 767.3 669.5 L 769.1 665.9 L 776.4 658.7 L 778.2 655.0 L 778.2 649.6 L 780.0 647.8 L 780.0 642.4 L 783.6 635.1 L 783.6 631.5 L 787.2 629.7 L 787.2 620.6 L 785.4 618.8 L 787.2 617.0 L 783.6 611.6 L 783.6 604.3 L 781.8 602.5 L 781.8 598.9 Z M 309.2 215.0 L 307.4 218.7 L 296.5 229.5 L 296.5 236.8 L 294.7 238.6 L 294.7 244.0 L 291.1 251.3 L 287.5 254.9 L 283.8 254.9 L 273.0 263.9 L 273.0 265.7 L 263.9 276.6 L 262.1 282.0 L 258.5 283.8 L 258.5 285.7 L 251.3 292.9 L 247.6 303.8 L 238.6 312.8 L 236.8 316.4 L 236.8 323.7 L 240.4 330.9 L 240.4 341.8 L 245.8 349.0 L 244.0 359.9 L 240.4 363.5 L 235.0 374.4 L 235.0 390.7 L 236.8 392.5 L 236.8 399.7 L 238.6 401.5 L 238.6 405.2 L 240.4 408.8 L 258.5 425.1 L 258.5 426.9 L 271.2 441.4 L 273.0 446.8 L 274.8 446.8 L 283.8 454.1 L 289.3 455.9 L 300.1 466.7 L 303.8 468.5 L 309.2 468.5 L 311.0 470.4 L 312.8 468.5 L 321.9 468.5 L 323.7 466.7 L 327.3 468.5 L 329.1 466.7 L 330.9 468.5 L 332.7 466.7 L 334.5 468.5 L 336.4 466.7 L 338.2 468.5 L 340.0 466.7 L 341.8 468.5 L 343.6 466.7 L 345.4 468.5 L 347.2 466.7 L 349.0 468.5 L 350.8 466.7 L 352.7 468.5 L 354.5 466.7 L 361.7 466.7 L 369.0 463.1 L 378.0 463.1 L 379.8 461.3 L 385.2 461.3 L 392.5 454.1 L 396.1 454.1 L 397.9 452.2 L 407.0 452.2 L 414.2 457.7 L 416.0 457.7 L 426.9 470.4 L 434.1 470.4 L 435.9 472.2 L 437.8 470.4 L 439.6 472.2 L 443.2 470.4 L 452.2 477.6 L 452.2 497.5 L 448.6 504.8 L 448.6 517.4 L 454.1 524.7 L 454.1 526.5 L 468.5 541.0 L 470.4 546.4 L 479.4 555.5 L 479.4 573.6 L 484.8 584.4 L 484.8 593.5 L 475.8 606.2 L 475.8 609.8 L 472.2 617.0 L 472.2 622.5 L 470.4 624.3 L 470.4 633.3 L 468.5 635.1 L 474.0 646.0 L 474.0 649.6 L 483.0 664.1 L 483.0 669.5 L 484.8 671.3 L 484.8 676.8 L 488.5 684.0 L 488.5 689.5 L 492.1 694.9 L 492.1 702.1 L 493.9 703.9 L 493.9 707.6 L 495.7 709.4 L 495.7 713.0 L 499.3 720.2 L 499.3 727.5 L 502.9 732.9 L 504.8 740.2 L 508.4 743.8 L 510.2 749.2 L 513.8 752.8 L 521.1 767.3 L 521.1 770.9 L 519.2 772.7 L 519.2 783.6 L 521.1 785.4 L 521.1 789.0 L 522.9 792.7 L 530.1 799.9 L 539.2 803.5 L 542.8 807.1 L 550.0 803.5 L 553.6 803.5 L 559.1 799.9 L 562.7 801.7 L 573.6 801.7 L 575.4 799.9 L 593.5 799.9 L 600.7 796.3 L 608.0 789.0 L 609.8 789.0 L 615.2 783.6 L 617.0 783.6 L 631.5 767.3 L 636.9 756.4 L 640.6 752.8 L 640.6 749.2 L 644.2 743.8 L 644.2 740.2 L 646.0 738.3 L 646.0 731.1 L 647.8 729.3 L 647.8 723.9 L 649.6 720.2 L 667.7 703.9 L 667.7 665.9 L 684.0 651.4 L 689.5 649.6 L 696.7 642.4 L 696.7 640.6 L 709.4 629.7 L 711.2 626.1 L 711.2 589.9 L 707.6 582.6 L 700.3 575.4 L 702.1 557.3 L 696.7 550.0 L 696.7 544.6 L 700.3 539.2 L 700.3 535.5 L 703.9 528.3 L 711.2 521.1 L 713.0 521.1 L 720.2 512.0 L 723.9 510.2 L 723.9 508.4 L 729.3 502.9 L 729.3 501.1 L 731.1 499.3 L 734.7 499.3 L 736.5 495.7 L 738.3 495.7 L 743.8 490.3 L 745.6 490.3 L 756.4 481.2 L 758.3 481.2 L 774.6 463.1 L 772.7 461.3 L 774.6 459.5 L 774.6 445.0 L 772.7 443.2 L 772.7 439.6 L 765.5 430.5 L 763.7 430.5 L 758.3 425.1 L 756.4 425.1 L 747.4 417.8 L 734.7 412.4 L 729.3 407.0 L 722.0 403.4 L 718.4 403.4 L 711.2 397.9 L 707.6 397.9 L 698.5 392.5 L 694.9 392.5 L 693.1 390.7 L 689.5 390.7 L 682.2 387.1 L 678.6 383.4 L 673.2 381.6 L 662.3 372.6 L 642.4 363.5 L 627.9 352.7 L 620.6 350.8 L 618.8 349.0 L 615.2 349.0 L 609.8 345.4 L 608.0 347.2 L 593.5 340.0 L 589.9 336.4 L 584.4 334.5 L 577.2 329.1 L 573.6 329.1 L 566.3 325.5 L 560.9 325.5 L 553.6 321.9 L 551.8 318.3 L 535.5 311.0 L 531.9 307.4 L 521.1 305.6 L 515.6 302.0 L 506.6 300.1 L 502.9 296.5 L 495.7 292.9 L 486.6 291.1 L 479.4 285.7 L 466.7 280.2 L 461.3 274.8 L 459.5 274.8 L 441.4 262.1 L 426.9 258.5 L 419.7 253.1 L 408.8 247.6 L 401.5 247.6 L 399.7 245.8 L 394.3 245.8 L 392.5 244.0 L 383.4 242.2 L 358.1 227.7 L 354.5 227.7 L 352.7 225.9 L 340.0 225.9 L 338.2 227.7 L 334.5 227.7 L 323.7 222.3 L 320.1 218.7 L 312.8 215.0 Z"/>
</svg>
