<svg xmlns="http://www.w3.org/2000/svg" viewBox="0 0 2000 728" width="2000" height="728">
<defs><linearGradient id="vg" x1="0" y1="1" x2="1" y2="0"><stop offset="0" stop-color="#0197B0"/><stop offset="1" stop-color="#7BD758"/></linearGradient></defs>
<path fill="#F8F3F0" fill-rule="evenodd" d="M 992.0 688.0 L 992.0 692.0 L 993.0 693.0 L 1009.0 693.0 L 1010.0 692.0 L 1010.0 688.0 L 1009.0 687.0 L 993.0 687.0 Z M 1634.0 663.0 L 1630.0 669.0 L 1630.0 671.0 L 1626.0 678.0 L 1626.0 680.0 L 1622.0 687.0 L 1622.0 689.0 L 1619.0 694.0 L 1619.0 696.0 L 1612.0 710.0 L 1613.0 711.0 L 1620.0 711.0 L 1622.0 709.0 L 1624.0 705.0 L 1624.0 703.0 L 1626.0 700.0 L 1648.0 700.0 L 1652.0 707.0 L 1652.0 709.0 L 1654.0 711.0 L 1661.0 711.0 L 1662.0 709.0 L 1659.0 704.0 L 1659.0 702.0 L 1656.0 697.0 L 1656.0 695.0 L 1653.0 690.0 L 1653.0 688.0 L 1649.0 681.0 L 1649.0 679.0 L 1646.0 674.0 L 1646.0 672.0 L 1641.0 663.0 Z M 1637.0 674.0 L 1645.0 691.0 L 1644.0 693.0 L 1630.0 693.0 L 1629.0 692.0 L 1633.0 684.0 L 1635.0 677.0 Z M 1583.0 663.0 L 1582.0 664.0 L 1578.0 664.0 L 1572.0 667.0 L 1565.0 674.0 L 1562.0 680.0 L 1561.0 689.0 L 1562.0 690.0 L 1562.0 694.0 L 1565.0 700.0 L 1572.0 707.0 L 1582.0 711.0 L 1590.0 711.0 L 1591.0 710.0 L 1594.0 710.0 L 1597.0 708.0 L 1599.0 708.0 L 1605.0 703.0 L 1600.0 698.0 L 1591.0 703.0 L 1582.0 703.0 L 1578.0 701.0 L 1571.0 693.0 L 1571.0 690.0 L 1570.0 689.0 L 1570.0 684.0 L 1571.0 683.0 L 1571.0 681.0 L 1573.0 677.0 L 1577.0 673.0 L 1581.0 671.0 L 1584.0 671.0 L 1585.0 670.0 L 1592.0 671.0 L 1600.0 676.0 L 1604.0 672.0 L 1604.0 670.0 L 1601.0 667.0 L 1597.0 665.0 L 1591.0 664.0 L 1590.0 663.0 Z M 1539.0 663.0 L 1538.0 664.0 L 1538.0 710.0 L 1539.0 711.0 L 1546.0 711.0 L 1547.0 710.0 L 1547.0 664.0 L 1546.0 663.0 Z M 1484.0 663.0 L 1483.0 664.0 L 1483.0 710.0 L 1484.0 711.0 L 1491.0 711.0 L 1492.0 710.0 L 1492.0 697.0 L 1493.0 696.0 L 1504.0 696.0 L 1509.0 703.0 L 1511.0 708.0 L 1514.0 711.0 L 1522.0 711.0 L 1523.0 710.0 L 1513.0 696.0 L 1513.0 695.0 L 1520.0 689.0 L 1522.0 684.0 L 1522.0 675.0 L 1520.0 671.0 L 1514.0 665.0 L 1508.0 664.0 L 1507.0 663.0 Z M 1492.0 671.0 L 1493.0 670.0 L 1505.0 670.0 L 1510.0 672.0 L 1513.0 675.0 L 1513.0 677.0 L 1514.0 678.0 L 1514.0 681.0 L 1512.0 686.0 L 1507.0 689.0 L 1493.0 689.0 L 1492.0 688.0 Z M 1469.0 663.0 L 1438.0 663.0 L 1437.0 664.0 L 1437.0 710.0 L 1438.0 711.0 L 1445.0 711.0 L 1446.0 710.0 L 1446.0 692.0 L 1447.0 691.0 L 1466.0 691.0 L 1467.0 690.0 L 1467.0 685.0 L 1466.0 684.0 L 1447.0 684.0 L 1446.0 683.0 L 1446.0 671.0 L 1447.0 670.0 L 1469.0 670.0 L 1470.0 669.0 L 1470.0 664.0 Z M 1397.0 663.0 L 1393.0 669.0 L 1393.0 671.0 L 1389.0 678.0 L 1389.0 680.0 L 1385.0 687.0 L 1385.0 689.0 L 1382.0 694.0 L 1382.0 696.0 L 1375.0 710.0 L 1376.0 711.0 L 1383.0 711.0 L 1385.0 709.0 L 1387.0 705.0 L 1387.0 703.0 L 1389.0 700.0 L 1411.0 700.0 L 1415.0 707.0 L 1415.0 709.0 L 1417.0 711.0 L 1424.0 711.0 L 1425.0 709.0 L 1422.0 704.0 L 1422.0 702.0 L 1419.0 697.0 L 1419.0 695.0 L 1416.0 690.0 L 1416.0 688.0 L 1412.0 681.0 L 1412.0 679.0 L 1409.0 674.0 L 1409.0 672.0 L 1404.0 663.0 Z M 1400.0 674.0 L 1408.0 691.0 L 1407.0 693.0 L 1393.0 693.0 L 1392.0 692.0 L 1396.0 684.0 L 1398.0 677.0 Z M 1317.0 663.0 L 1313.0 669.0 L 1313.0 671.0 L 1309.0 678.0 L 1309.0 680.0 L 1305.0 687.0 L 1305.0 689.0 L 1302.0 694.0 L 1302.0 696.0 L 1295.0 710.0 L 1296.0 711.0 L 1303.0 711.0 L 1305.0 709.0 L 1307.0 705.0 L 1307.0 703.0 L 1309.0 700.0 L 1331.0 700.0 L 1335.0 707.0 L 1335.0 709.0 L 1337.0 711.0 L 1344.0 711.0 L 1345.0 709.0 L 1342.0 704.0 L 1342.0 702.0 L 1339.0 697.0 L 1339.0 695.0 L 1336.0 690.0 L 1336.0 688.0 L 1332.0 681.0 L 1332.0 679.0 L 1329.0 674.0 L 1329.0 672.0 L 1324.0 663.0 Z M 1320.0 674.0 L 1328.0 691.0 L 1327.0 693.0 L 1313.0 693.0 L 1312.0 692.0 L 1316.0 684.0 L 1318.0 677.0 Z M 1247.0 663.0 L 1246.0 664.0 L 1246.0 710.0 L 1247.0 711.0 L 1254.0 711.0 L 1255.0 710.0 L 1255.0 697.0 L 1256.0 696.0 L 1267.0 696.0 L 1272.0 703.0 L 1274.0 708.0 L 1277.0 711.0 L 1285.0 711.0 L 1286.0 710.0 L 1276.0 696.0 L 1276.0 695.0 L 1283.0 689.0 L 1285.0 684.0 L 1285.0 675.0 L 1283.0 671.0 L 1277.0 665.0 L 1271.0 664.0 L 1270.0 663.0 Z M 1255.0 671.0 L 1256.0 670.0 L 1268.0 670.0 L 1273.0 672.0 L 1276.0 675.0 L 1276.0 677.0 L 1277.0 678.0 L 1277.0 681.0 L 1275.0 686.0 L 1270.0 689.0 L 1256.0 689.0 L 1255.0 688.0 Z M 1205.0 663.0 L 1201.0 669.0 L 1201.0 671.0 L 1197.0 678.0 L 1197.0 680.0 L 1193.0 687.0 L 1193.0 689.0 L 1190.0 694.0 L 1190.0 696.0 L 1183.0 710.0 L 1184.0 711.0 L 1191.0 711.0 L 1193.0 709.0 L 1195.0 705.0 L 1195.0 703.0 L 1197.0 700.0 L 1219.0 700.0 L 1223.0 707.0 L 1223.0 709.0 L 1225.0 711.0 L 1232.0 711.0 L 1233.0 709.0 L 1230.0 704.0 L 1230.0 702.0 L 1227.0 697.0 L 1227.0 695.0 L 1224.0 690.0 L 1224.0 688.0 L 1220.0 681.0 L 1220.0 679.0 L 1217.0 674.0 L 1217.0 672.0 L 1212.0 663.0 Z M 1208.0 674.0 L 1216.0 691.0 L 1215.0 693.0 L 1201.0 693.0 L 1200.0 692.0 L 1204.0 684.0 L 1206.0 677.0 Z M 1131.0 663.0 L 1130.0 664.0 L 1130.0 710.0 L 1131.0 711.0 L 1138.0 711.0 L 1139.0 710.0 L 1139.0 691.0 L 1140.0 690.0 L 1162.0 690.0 L 1163.0 691.0 L 1163.0 710.0 L 1164.0 711.0 L 1171.0 711.0 L 1172.0 710.0 L 1172.0 664.0 L 1171.0 663.0 L 1164.0 663.0 L 1163.0 664.0 L 1163.0 682.0 L 1162.0 683.0 L 1140.0 683.0 L 1139.0 682.0 L 1139.0 664.0 L 1138.0 663.0 Z M 1090.0 663.0 L 1086.0 669.0 L 1086.0 671.0 L 1082.0 678.0 L 1082.0 680.0 L 1078.0 687.0 L 1078.0 689.0 L 1075.0 694.0 L 1075.0 696.0 L 1068.0 710.0 L 1069.0 711.0 L 1076.0 711.0 L 1078.0 709.0 L 1080.0 705.0 L 1080.0 703.0 L 1082.0 700.0 L 1104.0 700.0 L 1108.0 707.0 L 1108.0 709.0 L 1110.0 711.0 L 1117.0 711.0 L 1118.0 709.0 L 1115.0 704.0 L 1115.0 702.0 L 1112.0 697.0 L 1112.0 695.0 L 1109.0 690.0 L 1109.0 688.0 L 1105.0 681.0 L 1105.0 679.0 L 1102.0 674.0 L 1102.0 672.0 L 1097.0 663.0 Z M 1093.0 674.0 L 1101.0 691.0 L 1100.0 693.0 L 1086.0 693.0 L 1085.0 692.0 L 1089.0 684.0 L 1091.0 677.0 Z M 1038.0 663.0 L 1030.0 666.0 L 1026.0 670.0 L 1025.0 672.0 L 1025.0 681.0 L 1030.0 687.0 L 1047.0 693.0 L 1050.0 696.0 L 1050.0 699.0 L 1049.0 701.0 L 1046.0 703.0 L 1037.0 703.0 L 1032.0 701.0 L 1026.0 697.0 L 1024.0 699.0 L 1022.0 704.0 L 1026.0 707.0 L 1033.0 710.0 L 1045.0 711.0 L 1046.0 710.0 L 1052.0 709.0 L 1057.0 705.0 L 1059.0 702.0 L 1059.0 699.0 L 1060.0 698.0 L 1059.0 692.0 L 1058.0 690.0 L 1052.0 685.0 L 1050.0 685.0 L 1047.0 683.0 L 1044.0 683.0 L 1037.0 680.0 L 1035.0 678.0 L 1034.0 675.0 L 1035.0 673.0 L 1038.0 671.0 L 1046.0 671.0 L 1055.0 675.0 L 1057.0 673.0 L 1059.0 668.0 L 1051.0 664.0 L 1047.0 664.0 L 1046.0 663.0 Z M 941.0 663.0 L 940.0 664.0 L 940.0 710.0 L 941.0 711.0 L 966.0 711.0 L 974.0 708.0 L 977.0 705.0 L 979.0 701.0 L 979.0 694.0 L 977.0 690.0 L 972.0 686.0 L 977.0 679.0 L 977.0 672.0 L 975.0 668.0 L 973.0 666.0 L 965.0 663.0 Z M 949.0 691.0 L 950.0 690.0 L 965.0 690.0 L 970.0 694.0 L 970.0 699.0 L 966.0 703.0 L 964.0 703.0 L 963.0 704.0 L 950.0 704.0 L 949.0 703.0 Z M 949.0 671.0 L 950.0 670.0 L 962.0 670.0 L 963.0 671.0 L 965.0 671.0 L 968.0 674.0 L 968.0 679.0 L 965.0 682.0 L 963.0 682.0 L 962.0 683.0 L 950.0 683.0 L 949.0 682.0 Z M 882.0 663.0 L 881.0 664.0 L 881.0 694.0 L 882.0 695.0 L 882.0 698.0 L 886.0 705.0 L 890.0 708.0 L 898.0 711.0 L 906.0 711.0 L 907.0 710.0 L 913.0 709.0 L 916.0 707.0 L 920.0 703.0 L 923.0 696.0 L 923.0 664.0 L 922.0 663.0 L 915.0 663.0 L 914.0 664.0 L 914.0 695.0 L 913.0 696.0 L 913.0 698.0 L 907.0 703.0 L 900.0 704.0 L 895.0 702.0 L 892.0 699.0 L 890.0 694.0 L 890.0 664.0 L 889.0 663.0 Z M 846.0 663.0 L 838.0 666.0 L 834.0 670.0 L 833.0 672.0 L 833.0 681.0 L 838.0 687.0 L 855.0 693.0 L 858.0 696.0 L 858.0 699.0 L 857.0 701.0 L 854.0 703.0 L 845.0 703.0 L 840.0 701.0 L 834.0 697.0 L 832.0 699.0 L 830.0 704.0 L 834.0 707.0 L 841.0 710.0 L 853.0 711.0 L 854.0 710.0 L 860.0 709.0 L 865.0 705.0 L 867.0 702.0 L 867.0 699.0 L 868.0 698.0 L 867.0 692.0 L 866.0 690.0 L 860.0 685.0 L 858.0 685.0 L 855.0 683.0 L 852.0 683.0 L 845.0 680.0 L 843.0 678.0 L 842.0 675.0 L 843.0 673.0 L 846.0 671.0 L 854.0 671.0 L 863.0 675.0 L 865.0 673.0 L 867.0 668.0 L 859.0 664.0 L 855.0 664.0 L 854.0 663.0 Z M 1454.0 532.0 L 1453.0 533.0 L 1467.0 550.0 L 1467.0 622.0 L 1468.0 623.0 L 1486.0 623.0 L 1487.0 622.0 L 1487.0 550.0 L 1501.0 533.0 L 1500.0 532.0 Z M 1453.0 520.0 L 1453.0 527.0 L 1454.0 528.0 L 1500.0 528.0 L 1501.0 527.0 L 1501.0 520.0 L 1500.0 519.0 L 1454.0 519.0 Z M 1453.0 514.0 L 1454.0 515.0 L 1500.0 515.0 L 1501.0 514.0 L 1492.0 503.0 L 1481.0 503.0 L 1480.0 502.0 L 1480.0 495.0 L 1481.0 494.0 L 1491.0 494.0 L 1492.0 493.0 L 1492.0 489.0 L 1491.0 488.0 L 1463.0 488.0 L 1462.0 489.0 L 1462.0 493.0 L 1463.0 494.0 L 1473.0 494.0 L 1474.0 495.0 L 1474.0 502.0 L 1473.0 503.0 L 1462.0 503.0 Z M 415.0 488.0 L 411.0 492.0 L 411.0 495.0 L 410.0 496.0 L 410.0 503.0 L 409.0 504.0 L 409.0 525.0 L 377.0 549.0 L 373.0 553.0 L 356.0 565.0 L 350.0 571.0 L 350.0 580.0 L 351.0 581.0 L 358.0 577.0 L 360.0 577.0 L 396.0 559.0 L 403.0 558.0 L 409.0 563.0 L 410.0 569.0 L 411.0 570.0 L 411.0 589.0 L 412.0 590.0 L 412.0 598.0 L 394.0 613.0 L 392.0 622.0 L 394.0 623.0 L 398.0 621.0 L 405.0 620.0 L 413.0 617.0 L 415.0 618.0 L 417.0 622.0 L 419.0 618.0 L 421.0 617.0 L 422.0 618.0 L 429.0 619.0 L 430.0 620.0 L 436.0 621.0 L 441.0 623.0 L 442.0 621.0 L 441.0 620.0 L 441.0 615.0 L 440.0 613.0 L 422.0 598.0 L 422.0 590.0 L 423.0 589.0 L 423.0 570.0 L 424.0 569.0 L 425.0 563.0 L 429.0 559.0 L 431.0 558.0 L 435.0 558.0 L 483.0 581.0 L 484.0 580.0 L 484.0 571.0 L 478.0 565.0 L 461.0 553.0 L 457.0 549.0 L 425.0 525.0 L 425.0 504.0 L 424.0 503.0 L 424.0 496.0 L 423.0 495.0 L 423.0 492.0 L 419.0 488.0 Z M 566.0 343.0 L 565.0 344.0 L 565.0 361.0 L 566.0 362.0 L 664.0 362.0 L 665.0 363.0 L 665.0 622.0 L 666.0 623.0 L 686.0 623.0 L 687.0 622.0 L 687.0 363.0 L 688.0 362.0 L 786.0 362.0 L 787.0 361.0 L 787.0 344.0 L 786.0 343.0 Z M 407.0 343.0 L 400.0 356.0 L 400.0 358.0 L 394.0 369.0 L 394.0 371.0 L 389.0 380.0 L 389.0 382.0 L 383.0 393.0 L 383.0 395.0 L 377.0 406.0 L 377.0 408.0 L 371.0 419.0 L 371.0 421.0 L 366.0 430.0 L 366.0 432.0 L 360.0 443.0 L 360.0 445.0 L 354.0 456.0 L 354.0 458.0 L 348.0 469.0 L 348.0 471.0 L 343.0 480.0 L 343.0 482.0 L 337.0 493.0 L 337.0 495.0 L 331.0 506.0 L 331.0 508.0 L 325.0 519.0 L 325.0 521.0 L 320.0 530.0 L 320.0 532.0 L 314.0 543.0 L 314.0 545.0 L 308.0 556.0 L 308.0 558.0 L 302.0 569.0 L 302.0 571.0 L 297.0 580.0 L 297.0 582.0 L 291.0 593.0 L 291.0 595.0 L 285.0 606.0 L 285.0 608.0 L 278.0 622.0 L 279.0 623.0 L 300.0 623.0 L 302.0 621.0 L 304.0 617.0 L 304.0 615.0 L 309.0 606.0 L 309.0 604.0 L 314.0 595.0 L 314.0 593.0 L 319.0 584.0 L 319.0 582.0 L 324.0 573.0 L 324.0 571.0 L 329.0 562.0 L 329.0 560.0 L 333.0 553.0 L 333.0 551.0 L 338.0 542.0 L 338.0 540.0 L 343.0 531.0 L 343.0 529.0 L 348.0 520.0 L 348.0 518.0 L 353.0 509.0 L 353.0 507.0 L 358.0 498.0 L 358.0 496.0 L 363.0 487.0 L 363.0 485.0 L 368.0 476.0 L 368.0 474.0 L 372.0 467.0 L 372.0 465.0 L 377.0 456.0 L 377.0 454.0 L 382.0 445.0 L 382.0 443.0 L 387.0 434.0 L 387.0 432.0 L 392.0 423.0 L 392.0 421.0 L 397.0 412.0 L 397.0 410.0 L 402.0 401.0 L 402.0 399.0 L 406.0 392.0 L 406.0 390.0 L 411.0 381.0 L 411.0 379.0 L 417.0 367.0 L 533.0 622.0 L 534.0 623.0 L 555.0 623.0 L 556.0 621.0 L 554.0 618.0 L 554.0 616.0 L 542.0 592.0 L 542.0 590.0 L 537.0 581.0 L 537.0 579.0 L 531.0 568.0 L 531.0 566.0 L 525.0 555.0 L 525.0 553.0 L 519.0 542.0 L 519.0 540.0 L 514.0 531.0 L 514.0 529.0 L 508.0 518.0 L 508.0 516.0 L 502.0 505.0 L 502.0 503.0 L 496.0 492.0 L 496.0 490.0 L 491.0 481.0 L 491.0 479.0 L 485.0 468.0 L 485.0 466.0 L 479.0 455.0 L 479.0 453.0 L 473.0 442.0 L 473.0 440.0 L 468.0 431.0 L 468.0 429.0 L 462.0 418.0 L 462.0 416.0 L 456.0 405.0 L 456.0 403.0 L 450.0 392.0 L 450.0 390.0 L 445.0 381.0 L 445.0 379.0 L 439.0 368.0 L 439.0 366.0 L 433.0 355.0 L 433.0 353.0 L 429.0 345.0 L 427.0 343.0 Z M 0.0 343.0 L 1.0 349.0 L 10.0 367.0 L 10.0 369.0 L 14.0 376.0 L 14.0 378.0 L 18.0 385.0 L 18.0 387.0 L 22.0 394.0 L 22.0 396.0 L 26.0 403.0 L 26.0 405.0 L 30.0 412.0 L 30.0 414.0 L 34.0 421.0 L 34.0 423.0 L 38.0 430.0 L 38.0 432.0 L 42.0 439.0 L 42.0 441.0 L 47.0 450.0 L 47.0 452.0 L 51.0 459.0 L 51.0 461.0 L 55.0 468.0 L 55.0 470.0 L 59.0 477.0 L 59.0 479.0 L 63.0 486.0 L 63.0 488.0 L 67.0 495.0 L 67.0 497.0 L 71.0 504.0 L 71.0 506.0 L 75.0 513.0 L 75.0 515.0 L 79.0 522.0 L 79.0 524.0 L 83.0 531.0 L 83.0 533.0 L 88.0 542.0 L 88.0 544.0 L 92.0 551.0 L 92.0 553.0 L 96.0 560.0 L 96.0 562.0 L 100.0 569.0 L 100.0 571.0 L 104.0 578.0 L 104.0 580.0 L 108.0 587.0 L 108.0 589.0 L 112.0 596.0 L 112.0 598.0 L 116.0 605.0 L 116.0 607.0 L 120.0 614.0 L 120.0 616.0 L 124.0 623.0 L 144.0 623.0 L 149.0 614.0 L 149.0 612.0 L 153.0 605.0 L 153.0 603.0 L 157.0 596.0 L 157.0 594.0 L 161.0 587.0 L 161.0 585.0 L 165.0 578.0 L 165.0 576.0 L 170.0 567.0 L 170.0 565.0 L 174.0 558.0 L 174.0 556.0 L 178.0 549.0 L 178.0 547.0 L 182.0 540.0 L 182.0 538.0 L 186.0 531.0 L 186.0 529.0 L 190.0 522.0 L 190.0 520.0 L 194.0 513.0 L 194.0 511.0 L 198.0 504.0 L 198.0 502.0 L 202.0 495.0 L 202.0 493.0 L 207.0 484.0 L 207.0 482.0 L 211.0 475.0 L 211.0 473.0 L 215.0 466.0 L 215.0 464.0 L 219.0 457.0 L 219.0 455.0 L 223.0 448.0 L 223.0 446.0 L 227.0 439.0 L 227.0 437.0 L 231.0 430.0 L 231.0 428.0 L 235.0 421.0 L 235.0 419.0 L 239.0 412.0 L 239.0 410.0 L 243.0 403.0 L 243.0 401.0 L 248.0 392.0 L 248.0 390.0 L 252.0 383.0 L 252.0 381.0 L 256.0 374.0 L 256.0 372.0 L 260.0 365.0 L 260.0 363.0 L 264.0 356.0 L 264.0 354.0 L 269.0 344.0 L 268.0 343.0 L 247.0 343.0 L 246.0 344.0 L 246.0 346.0 L 242.0 353.0 L 242.0 355.0 L 238.0 362.0 L 238.0 364.0 L 234.0 371.0 L 234.0 373.0 L 230.0 380.0 L 230.0 382.0 L 226.0 389.0 L 226.0 391.0 L 221.0 400.0 L 221.0 402.0 L 217.0 409.0 L 217.0 411.0 L 213.0 418.0 L 213.0 420.0 L 209.0 427.0 L 209.0 429.0 L 205.0 436.0 L 205.0 438.0 L 201.0 445.0 L 201.0 447.0 L 196.0 456.0 L 196.0 458.0 L 192.0 465.0 L 192.0 467.0 L 188.0 474.0 L 188.0 476.0 L 184.0 483.0 L 184.0 485.0 L 180.0 492.0 L 180.0 494.0 L 176.0 501.0 L 176.0 503.0 L 172.0 510.0 L 172.0 512.0 L 167.0 521.0 L 167.0 523.0 L 163.0 530.0 L 163.0 532.0 L 159.0 539.0 L 159.0 541.0 L 155.0 548.0 L 155.0 550.0 L 151.0 557.0 L 151.0 559.0 L 147.0 566.0 L 147.0 568.0 L 142.0 577.0 L 142.0 579.0 L 135.0 593.0 L 133.0 591.0 L 130.0 585.0 L 130.0 583.0 L 126.0 576.0 L 126.0 574.0 L 122.0 567.0 L 122.0 565.0 L 117.0 556.0 L 117.0 554.0 L 113.0 547.0 L 113.0 545.0 L 109.0 538.0 L 109.0 536.0 L 105.0 529.0 L 105.0 527.0 L 101.0 520.0 L 101.0 518.0 L 97.0 511.0 L 97.0 509.0 L 93.0 502.0 L 93.0 500.0 L 88.0 491.0 L 88.0 489.0 L 84.0 482.0 L 84.0 480.0 L 80.0 473.0 L 80.0 471.0 L 76.0 464.0 L 76.0 462.0 L 72.0 455.0 L 72.0 453.0 L 68.0 446.0 L 68.0 444.0 L 63.0 435.0 L 63.0 433.0 L 59.0 426.0 L 59.0 424.0 L 55.0 417.0 L 55.0 415.0 L 51.0 408.0 L 51.0 406.0 L 47.0 399.0 L 47.0 397.0 L 38.0 379.0 L 38.0 377.0 L 34.0 370.0 L 34.0 368.0 L 30.0 361.0 L 30.0 359.0 L 26.0 352.0 L 26.0 350.0 L 22.0 343.0 Z M 1467.0 342.0 L 1461.0 353.0 L 1461.0 355.0 L 1456.0 364.0 L 1456.0 366.0 L 1438.0 403.0 L 1438.0 405.0 L 1433.0 414.0 L 1433.0 416.0 L 1415.0 453.0 L 1415.0 455.0 L 1410.0 464.0 L 1410.0 466.0 L 1404.0 477.0 L 1404.0 479.0 L 1398.0 490.0 L 1398.0 492.0 L 1392.0 503.0 L 1392.0 505.0 L 1387.0 514.0 L 1387.0 516.0 L 1381.0 527.0 L 1381.0 529.0 L 1375.0 540.0 L 1375.0 542.0 L 1369.0 553.0 L 1369.0 555.0 L 1364.0 564.0 L 1364.0 566.0 L 1358.0 577.0 L 1358.0 579.0 L 1352.0 590.0 L 1352.0 592.0 L 1346.0 603.0 L 1346.0 605.0 L 1341.0 614.0 L 1341.0 616.0 L 1338.0 622.0 L 1339.0 623.0 L 1360.0 623.0 L 1362.0 621.0 L 1366.0 613.0 L 1366.0 611.0 L 1371.0 602.0 L 1371.0 600.0 L 1376.0 591.0 L 1376.0 589.0 L 1380.0 582.0 L 1380.0 580.0 L 1385.0 571.0 L 1385.0 569.0 L 1390.0 560.0 L 1390.0 558.0 L 1395.0 549.0 L 1395.0 547.0 L 1400.0 538.0 L 1400.0 536.0 L 1405.0 527.0 L 1405.0 525.0 L 1410.0 516.0 L 1410.0 514.0 L 1414.0 507.0 L 1414.0 505.0 L 1419.0 496.0 L 1419.0 494.0 L 1424.0 485.0 L 1424.0 483.0 L 1429.0 474.0 L 1429.0 472.0 L 1434.0 463.0 L 1434.0 461.0 L 1439.0 452.0 L 1439.0 450.0 L 1444.0 441.0 L 1444.0 439.0 L 1448.0 432.0 L 1448.0 430.0 L 1453.0 421.0 L 1453.0 419.0 L 1458.0 410.0 L 1458.0 408.0 L 1463.0 399.0 L 1463.0 397.0 L 1477.0 368.0 L 1484.0 382.0 L 1484.0 384.0 L 1489.0 393.0 L 1489.0 395.0 L 1494.0 404.0 L 1494.0 406.0 L 1499.0 415.0 L 1499.0 417.0 L 1504.0 426.0 L 1504.0 428.0 L 1509.0 437.0 L 1509.0 439.0 L 1514.0 448.0 L 1514.0 450.0 L 1519.0 459.0 L 1519.0 461.0 L 1524.0 470.0 L 1524.0 472.0 L 1529.0 481.0 L 1529.0 483.0 L 1534.0 492.0 L 1534.0 494.0 L 1539.0 503.0 L 1539.0 505.0 L 1544.0 514.0 L 1544.0 516.0 L 1550.0 527.0 L 1550.0 529.0 L 1555.0 538.0 L 1555.0 540.0 L 1560.0 549.0 L 1560.0 551.0 L 1565.0 560.0 L 1565.0 562.0 L 1570.0 571.0 L 1570.0 573.0 L 1575.0 582.0 L 1575.0 584.0 L 1580.0 593.0 L 1580.0 595.0 L 1585.0 604.0 L 1585.0 606.0 L 1590.0 615.0 L 1590.0 617.0 L 1592.0 621.0 L 1594.0 623.0 L 1615.0 623.0 L 1616.0 622.0 L 1616.0 620.0 L 1598.0 583.0 L 1598.0 581.0 L 1593.0 572.0 L 1593.0 570.0 L 1575.0 533.0 L 1575.0 531.0 L 1570.0 522.0 L 1570.0 520.0 L 1552.0 483.0 L 1552.0 481.0 L 1535.0 446.0 L 1535.0 444.0 L 1529.0 433.0 L 1529.0 431.0 L 1512.0 396.0 L 1512.0 394.0 L 1506.0 383.0 L 1506.0 381.0 L 1489.0 346.0 L 1489.0 344.0 L 1487.0 342.0 Z M 1168.0 343.0 L 1167.0 344.0 L 1163.0 344.0 L 1159.0 346.0 L 1156.0 346.0 L 1155.0 347.0 L 1150.0 348.0 L 1134.0 356.0 L 1127.0 361.0 L 1112.0 377.0 L 1106.0 388.0 L 1106.0 390.0 L 1103.0 397.0 L 1102.0 407.0 L 1101.0 408.0 L 1101.0 423.0 L 1102.0 424.0 L 1102.0 430.0 L 1103.0 431.0 L 1103.0 435.0 L 1104.0 436.0 L 1105.0 441.0 L 1111.0 452.0 L 1122.0 464.0 L 1133.0 472.0 L 1145.0 478.0 L 1147.0 478.0 L 1150.0 480.0 L 1152.0 480.0 L 1168.0 486.0 L 1171.0 486.0 L 1175.0 488.0 L 1178.0 488.0 L 1179.0 489.0 L 1186.0 490.0 L 1190.0 492.0 L 1198.0 493.0 L 1199.0 494.0 L 1206.0 495.0 L 1210.0 497.0 L 1217.0 498.0 L 1221.0 500.0 L 1224.0 500.0 L 1225.0 501.0 L 1239.0 505.0 L 1253.0 512.0 L 1266.0 523.0 L 1273.0 535.0 L 1274.0 541.0 L 1275.0 542.0 L 1275.0 561.0 L 1274.0 562.0 L 1274.0 565.0 L 1271.0 571.0 L 1271.0 573.0 L 1269.0 575.0 L 1268.0 578.0 L 1265.0 582.0 L 1254.0 592.0 L 1238.0 600.0 L 1228.0 602.0 L 1227.0 603.0 L 1223.0 603.0 L 1222.0 604.0 L 1217.0 604.0 L 1216.0 605.0 L 1206.0 605.0 L 1205.0 606.0 L 1187.0 606.0 L 1186.0 605.0 L 1177.0 605.0 L 1176.0 604.0 L 1170.0 604.0 L 1169.0 603.0 L 1165.0 603.0 L 1164.0 602.0 L 1157.0 601.0 L 1156.0 600.0 L 1145.0 597.0 L 1142.0 595.0 L 1140.0 595.0 L 1129.0 590.0 L 1112.0 579.0 L 1104.0 571.0 L 1102.0 572.0 L 1098.0 578.0 L 1097.0 581.0 L 1094.0 585.0 L 1094.0 587.0 L 1102.0 595.0 L 1115.0 604.0 L 1133.0 613.0 L 1135.0 613.0 L 1138.0 615.0 L 1140.0 615.0 L 1150.0 619.0 L 1153.0 619.0 L 1158.0 621.0 L 1162.0 621.0 L 1163.0 622.0 L 1167.0 622.0 L 1168.0 623.0 L 1174.0 623.0 L 1175.0 624.0 L 1186.0 624.0 L 1187.0 625.0 L 1206.0 625.0 L 1207.0 624.0 L 1218.0 624.0 L 1219.0 623.0 L 1230.0 622.0 L 1231.0 621.0 L 1234.0 621.0 L 1235.0 620.0 L 1245.0 618.0 L 1262.0 610.0 L 1271.0 604.0 L 1284.0 591.0 L 1288.0 585.0 L 1294.0 572.0 L 1294.0 569.0 L 1296.0 564.0 L 1296.0 558.0 L 1297.0 557.0 L 1297.0 544.0 L 1296.0 543.0 L 1296.0 536.0 L 1295.0 535.0 L 1295.0 532.0 L 1294.0 531.0 L 1294.0 528.0 L 1292.0 525.0 L 1292.0 523.0 L 1286.0 513.0 L 1275.0 502.0 L 1267.0 496.0 L 1262.0 494.0 L 1258.0 491.0 L 1256.0 491.0 L 1251.0 488.0 L 1249.0 488.0 L 1243.0 485.0 L 1237.0 484.0 L 1227.0 480.0 L 1224.0 480.0 L 1220.0 478.0 L 1217.0 478.0 L 1216.0 477.0 L 1213.0 477.0 L 1212.0 476.0 L 1209.0 476.0 L 1208.0 475.0 L 1193.0 472.0 L 1189.0 470.0 L 1182.0 469.0 L 1175.0 466.0 L 1172.0 466.0 L 1171.0 465.0 L 1163.0 463.0 L 1160.0 461.0 L 1158.0 461.0 L 1155.0 459.0 L 1153.0 459.0 L 1140.0 451.0 L 1130.0 441.0 L 1125.0 432.0 L 1124.0 426.0 L 1123.0 425.0 L 1123.0 416.0 L 1122.0 415.0 L 1123.0 414.0 L 1123.0 405.0 L 1124.0 404.0 L 1124.0 401.0 L 1128.0 391.0 L 1132.0 385.0 L 1143.0 374.0 L 1153.0 368.0 L 1155.0 368.0 L 1158.0 366.0 L 1160.0 366.0 L 1167.0 363.0 L 1170.0 363.0 L 1171.0 362.0 L 1183.0 361.0 L 1184.0 360.0 L 1215.0 360.0 L 1216.0 361.0 L 1222.0 361.0 L 1223.0 362.0 L 1227.0 362.0 L 1228.0 363.0 L 1236.0 364.0 L 1237.0 365.0 L 1251.0 369.0 L 1268.0 377.0 L 1277.0 383.0 L 1285.0 368.0 L 1285.0 366.0 L 1275.0 359.0 L 1263.0 353.0 L 1253.0 350.0 L 1250.0 348.0 L 1247.0 348.0 L 1246.0 347.0 L 1236.0 345.0 L 1235.0 344.0 L 1226.0 343.0 L 1225.0 342.0 L 1218.0 342.0 L 1217.0 341.0 L 1182.0 341.0 L 1181.0 342.0 Z M 905.0 343.0 L 904.0 344.0 L 901.0 344.0 L 900.0 345.0 L 890.0 347.0 L 873.0 355.0 L 864.0 361.0 L 852.0 373.0 L 848.0 379.0 L 841.0 394.0 L 840.0 402.0 L 839.0 403.0 L 839.0 410.0 L 838.0 411.0 L 839.0 429.0 L 840.0 430.0 L 840.0 434.0 L 841.0 435.0 L 843.0 443.0 L 849.0 453.0 L 857.0 462.0 L 858.0 462.0 L 863.0 467.0 L 870.0 472.0 L 882.0 478.0 L 884.0 478.0 L 887.0 480.0 L 889.0 480.0 L 902.0 485.0 L 912.0 487.0 L 916.0 489.0 L 919.0 489.0 L 920.0 490.0 L 923.0 490.0 L 924.0 491.0 L 927.0 491.0 L 928.0 492.0 L 931.0 492.0 L 932.0 493.0 L 947.0 496.0 L 951.0 498.0 L 958.0 499.0 L 959.0 500.0 L 976.0 505.0 L 979.0 507.0 L 981.0 507.0 L 993.0 514.0 L 1004.0 524.0 L 1009.0 532.0 L 1009.0 534.0 L 1011.0 537.0 L 1011.0 540.0 L 1012.0 541.0 L 1012.0 548.0 L 1013.0 549.0 L 1012.0 562.0 L 1006.0 577.0 L 994.0 590.0 L 978.0 599.0 L 976.0 599.0 L 972.0 601.0 L 969.0 601.0 L 968.0 602.0 L 965.0 602.0 L 964.0 603.0 L 961.0 603.0 L 960.0 604.0 L 954.0 604.0 L 953.0 605.0 L 943.0 605.0 L 942.0 606.0 L 924.0 606.0 L 923.0 605.0 L 908.0 604.0 L 907.0 603.0 L 903.0 603.0 L 902.0 602.0 L 898.0 602.0 L 894.0 600.0 L 891.0 600.0 L 890.0 599.0 L 882.0 597.0 L 879.0 595.0 L 877.0 595.0 L 861.0 587.0 L 848.0 578.0 L 841.0 571.0 L 839.0 572.0 L 838.0 575.0 L 831.0 585.0 L 831.0 587.0 L 838.0 594.0 L 852.0 604.0 L 878.0 616.0 L 880.0 616.0 L 884.0 618.0 L 887.0 618.0 L 891.0 620.0 L 894.0 620.0 L 895.0 621.0 L 899.0 621.0 L 900.0 622.0 L 904.0 622.0 L 905.0 623.0 L 911.0 623.0 L 912.0 624.0 L 923.0 624.0 L 924.0 625.0 L 943.0 625.0 L 944.0 624.0 L 955.0 624.0 L 956.0 623.0 L 962.0 623.0 L 963.0 622.0 L 972.0 621.0 L 973.0 620.0 L 976.0 620.0 L 977.0 619.0 L 982.0 618.0 L 985.0 616.0 L 987.0 616.0 L 1001.0 609.0 L 1013.0 600.0 L 1024.0 587.0 L 1030.0 575.0 L 1030.0 573.0 L 1032.0 569.0 L 1032.0 566.0 L 1033.0 565.0 L 1033.0 560.0 L 1034.0 559.0 L 1034.0 541.0 L 1033.0 540.0 L 1033.0 535.0 L 1032.0 534.0 L 1032.0 531.0 L 1031.0 530.0 L 1030.0 525.0 L 1026.0 517.0 L 1011.0 501.0 L 1004.0 496.0 L 993.0 490.0 L 991.0 490.0 L 983.0 486.0 L 981.0 486.0 L 974.0 483.0 L 971.0 483.0 L 964.0 480.0 L 961.0 480.0 L 957.0 478.0 L 954.0 478.0 L 953.0 477.0 L 950.0 477.0 L 949.0 476.0 L 934.0 473.0 L 930.0 471.0 L 927.0 471.0 L 926.0 470.0 L 916.0 468.0 L 909.0 465.0 L 906.0 465.0 L 900.0 462.0 L 895.0 461.0 L 880.0 453.0 L 867.0 441.0 L 863.0 434.0 L 863.0 432.0 L 861.0 428.0 L 861.0 424.0 L 860.0 423.0 L 860.0 406.0 L 861.0 405.0 L 861.0 402.0 L 862.0 401.0 L 863.0 396.0 L 867.0 388.0 L 879.0 375.0 L 895.0 366.0 L 897.0 366.0 L 901.0 364.0 L 904.0 364.0 L 905.0 363.0 L 908.0 363.0 L 909.0 362.0 L 920.0 361.0 L 921.0 360.0 L 952.0 360.0 L 953.0 361.0 L 959.0 361.0 L 960.0 362.0 L 969.0 363.0 L 970.0 364.0 L 973.0 364.0 L 977.0 366.0 L 983.0 367.0 L 1005.0 377.0 L 1014.0 383.0 L 1018.0 377.0 L 1018.0 375.0 L 1022.0 368.0 L 1022.0 366.0 L 1014.0 360.0 L 1000.0 353.0 L 998.0 353.0 L 995.0 351.0 L 993.0 351.0 L 990.0 349.0 L 988.0 349.0 L 984.0 347.0 L 981.0 347.0 L 980.0 346.0 L 977.0 346.0 L 976.0 345.0 L 973.0 345.0 L 968.0 343.0 L 955.0 342.0 L 954.0 341.0 L 919.0 341.0 L 918.0 342.0 Z"/>
<path fill="url(#vg)" fill-rule="evenodd" d="M 1952.4 425.2 L 1940.7 436.9 L 1939.1 445.2 L 1932.4 453.5 L 1929.1 455.2 L 1924.1 455.2 L 1922.4 456.9 L 1920.8 455.2 L 1910.8 463.5 L 1910.8 470.2 L 1912.4 471.8 L 1912.4 475.2 L 1910.8 476.8 L 1910.8 486.8 L 1905.8 496.8 L 1905.8 521.8 L 1907.4 523.5 L 1907.4 526.8 L 1914.1 533.4 L 1915.8 536.8 L 1919.1 536.8 L 1924.1 533.4 L 1932.4 531.8 L 1934.1 525.1 L 1935.7 523.5 L 1935.7 520.1 L 1940.7 510.1 L 1940.7 503.5 L 1942.4 501.8 L 1942.4 491.8 L 1944.1 488.5 L 1950.7 481.8 L 1952.4 478.5 L 1952.4 473.5 L 1954.1 471.8 L 1954.1 466.9 L 1957.4 460.2 L 1957.4 456.9 L 1960.7 455.2 L 1960.7 446.9 L 1959.0 445.2 L 1960.7 443.5 L 1957.4 438.6 L 1957.4 431.9 L 1955.7 430.2 L 1955.7 426.9 Z M 1521.2 74.0 L 1519.6 77.3 L 1509.6 87.3 L 1509.6 94.0 L 1507.9 95.6 L 1507.9 100.6 L 1504.6 107.3 L 1501.3 110.6 L 1497.9 110.6 L 1488.0 118.9 L 1488.0 120.6 L 1479.6 130.6 L 1478.0 135.6 L 1474.6 137.3 L 1474.6 138.9 L 1468.0 145.6 L 1464.7 155.6 L 1456.3 163.9 L 1454.7 167.2 L 1454.7 173.9 L 1458.0 180.5 L 1458.0 190.5 L 1463.0 197.2 L 1461.3 207.2 L 1458.0 210.5 L 1453.0 220.5 L 1453.0 235.5 L 1454.7 237.1 L 1454.7 243.8 L 1456.3 245.5 L 1456.3 248.8 L 1458.0 252.1 L 1474.6 267.1 L 1474.6 268.8 L 1486.3 282.1 L 1488.0 287.1 L 1489.6 287.1 L 1497.9 293.7 L 1502.9 295.4 L 1512.9 305.4 L 1516.3 307.0 L 1521.2 307.0 L 1522.9 308.7 L 1524.6 307.0 L 1532.9 307.0 L 1534.6 305.4 L 1537.9 307.0 L 1539.6 305.4 L 1541.2 307.0 L 1542.9 305.4 L 1544.6 307.0 L 1546.2 305.4 L 1547.9 307.0 L 1549.5 305.4 L 1551.2 307.0 L 1552.9 305.4 L 1554.5 307.0 L 1556.2 305.4 L 1557.9 307.0 L 1559.5 305.4 L 1561.2 307.0 L 1562.9 305.4 L 1569.5 305.4 L 1576.2 302.1 L 1584.5 302.1 L 1586.2 300.4 L 1591.2 300.4 L 1597.8 293.7 L 1601.2 293.7 L 1602.8 292.1 L 1611.1 292.1 L 1617.8 297.1 L 1619.5 297.1 L 1629.5 308.7 L 1636.1 308.7 L 1637.8 310.4 L 1639.4 308.7 L 1641.1 310.4 L 1644.4 308.7 L 1652.8 315.4 L 1652.8 333.7 L 1649.4 340.3 L 1649.4 352.0 L 1654.4 358.7 L 1654.4 360.3 L 1667.7 373.6 L 1669.4 378.6 L 1677.7 387.0 L 1677.7 403.6 L 1682.7 413.6 L 1682.7 421.9 L 1674.4 433.6 L 1674.4 436.9 L 1671.1 443.5 L 1671.1 448.5 L 1669.4 450.2 L 1669.4 458.5 L 1667.7 460.2 L 1672.7 470.2 L 1672.7 473.5 L 1681.1 486.8 L 1681.1 491.8 L 1682.7 493.5 L 1682.7 498.5 L 1686.0 505.1 L 1686.0 510.1 L 1689.4 515.1 L 1689.4 521.8 L 1691.0 523.5 L 1691.0 526.8 L 1692.7 528.4 L 1692.7 531.8 L 1696.0 538.4 L 1696.0 545.1 L 1699.4 550.1 L 1701.0 556.7 L 1704.4 560.1 L 1706.0 565.1 L 1709.4 568.4 L 1716.0 581.7 L 1716.0 585.0 L 1714.3 586.7 L 1714.3 596.7 L 1716.0 598.4 L 1716.0 601.7 L 1717.7 605.0 L 1724.3 611.7 L 1732.7 615.0 L 1736.0 618.3 L 1742.6 615.0 L 1746.0 615.0 L 1751.0 611.7 L 1754.3 613.3 L 1764.3 613.3 L 1766.0 611.7 L 1782.6 611.7 L 1789.3 608.3 L 1795.9 601.7 L 1797.6 601.7 L 1802.6 596.7 L 1804.2 596.7 L 1817.6 581.7 L 1822.5 571.7 L 1825.9 568.4 L 1825.9 565.1 L 1829.2 560.1 L 1829.2 556.7 L 1830.9 555.1 L 1830.9 548.4 L 1832.5 546.8 L 1832.5 541.8 L 1834.2 538.4 L 1850.8 523.5 L 1850.8 488.5 L 1865.8 475.2 L 1870.8 473.5 L 1877.5 466.9 L 1877.5 465.2 L 1889.1 455.2 L 1890.8 451.9 L 1890.8 418.6 L 1887.5 411.9 L 1880.8 405.3 L 1882.5 388.6 L 1877.5 382.0 L 1877.5 377.0 L 1880.8 372.0 L 1880.8 368.6 L 1884.1 362.0 L 1890.8 355.3 L 1892.5 355.3 L 1899.1 347.0 L 1902.5 345.3 L 1902.5 343.7 L 1907.4 338.7 L 1907.4 337.0 L 1909.1 335.3 L 1912.4 335.3 L 1914.1 332.0 L 1915.8 332.0 L 1920.8 327.0 L 1922.4 327.0 L 1932.4 318.7 L 1934.1 318.7 L 1949.1 302.1 L 1947.4 300.4 L 1949.1 298.7 L 1949.1 285.4 L 1947.4 283.7 L 1947.4 280.4 L 1940.7 272.1 L 1939.1 272.1 L 1934.1 267.1 L 1932.4 267.1 L 1924.1 260.4 L 1912.4 255.4 L 1907.4 250.5 L 1900.8 247.1 L 1897.5 247.1 L 1890.8 242.1 L 1887.5 242.1 L 1879.1 237.1 L 1875.8 237.1 L 1874.2 235.5 L 1870.8 235.5 L 1864.2 232.1 L 1860.8 228.8 L 1855.8 227.1 L 1845.9 218.8 L 1827.5 210.5 L 1814.2 200.5 L 1807.6 198.8 L 1805.9 197.2 L 1802.6 197.2 L 1797.6 193.9 L 1795.9 195.5 L 1782.6 188.9 L 1779.3 185.5 L 1774.3 183.9 L 1767.6 178.9 L 1764.3 178.9 L 1757.6 175.5 L 1752.6 175.5 L 1746.0 172.2 L 1744.3 168.9 L 1729.3 162.2 L 1726.0 158.9 L 1716.0 157.2 L 1711.0 153.9 L 1702.7 152.2 L 1699.4 148.9 L 1692.7 145.6 L 1684.4 143.9 L 1677.7 138.9 L 1666.1 133.9 L 1661.1 128.9 L 1659.4 128.9 L 1642.8 117.3 L 1629.5 114.0 L 1622.8 109.0 L 1612.8 104.0 L 1606.1 104.0 L 1604.5 102.3 L 1599.5 102.3 L 1597.8 100.6 L 1589.5 99.0 L 1566.2 85.7 L 1562.9 85.7 L 1561.2 84.0 L 1549.5 84.0 L 1547.9 85.7 L 1544.6 85.7 L 1534.6 80.7 L 1531.2 77.3 L 1524.6 74.0 Z"/>
</svg>
